<svg width="28" height="29" viewBox="0 0 28 29" fill="none" xmlns="http://www.w3.org/2000/svg">
<path d="M13.8898 4.08387C7.57037 3.99139 2.50081 9.64927 3.56621 16.1236C4.28863 20.5172 7.89841 23.975 12.3077 24.5702C15.2808 24.9716 18.0603 24.1137 20.1644 22.425L19.0918 21.0843C17.3364 22.4931 15.0271 23.2191 12.5223 22.8808C8.87094 22.388 5.87963 19.4881 5.28234 15.8554C4.38278 10.3889 8.5728 5.72258 13.863 5.8C18.3719 5.86612 22.1727 9.60553 22.3096 14.1125C22.3126 14.2091 22.3096 14.303 22.3096 14.4075C22.3027 16.2977 20.772 17.8136 18.8773 17.8129C17.9189 17.8123 17.1612 17.0541 17.1612 16.0968V15.6677V13.0935V9.23225H15.445V9.90262C14.8285 9.48502 14.0958 9.23225 13.2999 9.23225C11.1775 9.23225 9.43859 10.9712 9.43859 13.0935V15.6677C9.43859 17.7901 11.1775 19.529 13.2999 19.529C14.4565 19.529 15.4864 19.0018 16.1959 18.1883C16.8261 18.9898 17.7865 19.5284 18.8773 19.529C21.6951 19.5301 24.0154 17.2297 24.0257 14.4075C24.0257 14.294 24.0296 14.1819 24.0257 14.0589C23.8606 8.62258 19.3275 4.16361 13.8898 4.08387ZM13.2999 10.9484C14.4948 10.9484 15.445 11.8986 15.445 13.0935V15.6677C15.445 16.8626 14.4948 17.8129 13.2999 17.8129C12.105 17.8129 11.1547 16.8626 11.1547 15.6677V13.0935C11.1547 11.8986 12.105 10.9484 13.2999 10.9484Z" fill="white"/>
</svg>
