<svg width="24" height="24" viewBox="0 0 24 24" fill="none" xmlns="http://www.w3.org/2000/svg">
<path d="M7.98775 21.9272H16.3281C19.3988 21.9272 21.8884 19.4376 21.8884 16.367V8.02658C21.8884 4.95593 19.3988 2.46632 16.3281 2.46632H7.98775C4.9171 2.46632 2.42749 4.95593 2.42749 8.02658V16.367C2.42749 19.4376 4.9171 21.9272 7.98775 21.9272Z" stroke="white" stroke-width="1.71613" stroke-miterlimit="10"/>
<path d="M12.1582 7.56323C10.9293 7.56323 9.75075 8.05141 8.88179 8.92037C8.01283 9.78933 7.52466 10.9679 7.52466 12.1968C7.52466 13.4257 8.01283 14.6042 8.88179 15.4732C9.75075 16.3422 10.9293 16.8303 12.1582 16.8303C13.3871 16.8303 14.5657 16.3422 15.4346 15.4732C16.3036 14.6042 16.7918 13.4257 16.7918 12.1968C16.7918 10.9679 16.3036 9.78933 15.4346 8.92037C14.5657 8.05141 13.3871 7.56323 12.1582 7.56323Z" stroke="white" stroke-width="1.71613" stroke-miterlimit="10"/>
<path d="M17.7182 5.70981C17.4724 5.70981 17.2367 5.80744 17.0629 5.98124C16.8891 6.15503 16.7915 6.39074 16.7915 6.63652C16.7915 6.8823 16.8891 7.11801 17.0629 7.2918C17.2367 7.46559 17.4724 7.56323 17.7182 7.56323C17.964 7.56323 18.1997 7.46559 18.3735 7.2918C18.5473 7.11801 18.6449 6.8823 18.6449 6.63652C18.6449 6.39074 18.5473 6.15503 18.3735 5.98124C18.1997 5.80744 17.964 5.70981 17.7182 5.70981Z" fill="white"/>
</svg>
