<svg width="25" height="25" viewBox="0 0 25 25" fill="none" xmlns="http://www.w3.org/2000/svg">
<path d="M17.0803 21.5515C16.3463 21.5461 15.6154 21.4539 14.903 21.277C12.4427 20.6834 9.90918 19.1776 7.77032 17.0368C5.63146 14.8961 4.12374 12.3621 3.53014 9.90415C2.90509 7.31856 3.35088 5.1065 4.78398 3.6734L5.19317 3.26421C5.56443 2.8937 6.06751 2.68561 6.59202 2.68561C7.11653 2.68561 7.61961 2.8937 7.99086 3.26421L10.3423 5.61517C10.713 5.9863 10.9213 6.48943 10.9213 7.01402C10.9213 7.5386 10.713 8.04173 10.3423 8.41286L8.9533 9.80139C9.61918 10.9698 10.5248 12.1392 11.5952 13.2096C12.6656 14.2799 13.8359 15.1861 15.0039 15.8519L16.3924 14.463C16.5761 14.2792 16.7941 14.1335 17.0342 14.034C17.2742 13.9346 17.5314 13.8834 17.7912 13.8834C18.051 13.8834 18.3083 13.9346 18.5483 14.034C18.7883 14.1335 19.0064 14.2792 19.1901 14.463L21.541 16.8139C21.9119 17.1849 22.1202 17.688 22.1202 18.2125C22.1202 18.7371 21.9119 19.2402 21.541 19.6111L21.1314 20.0203C20.1211 21.0325 18.7227 21.5515 17.0803 21.5515ZM6.59202 4.09244C6.5171 4.09207 6.44285 4.10665 6.37364 4.13534C6.30442 4.16402 6.24163 4.20623 6.18893 4.2595L5.77927 4.66869C4.70609 5.74187 4.39262 7.48421 4.8966 9.57192C5.43015 11.7835 6.80365 14.0815 8.76373 16.0411C10.7238 18.0007 13.0213 19.3728 15.2333 19.9082C17.3215 20.4122 19.0629 20.0987 20.1361 19.0255L20.5453 18.6163C20.6522 18.5093 20.7123 18.3643 20.7123 18.213C20.7123 18.0617 20.6522 17.9167 20.5453 17.8097L18.1948 15.4587C18.0878 15.3518 17.9427 15.2917 17.7915 15.2917C17.6402 15.2917 17.4951 15.3518 17.3881 15.4587L15.628 17.2189C15.5224 17.3246 15.3859 17.3939 15.2382 17.4168C15.0906 17.4398 14.9395 17.4152 14.8068 17.3465C13.3638 16.6004 11.9091 15.5141 10.5999 14.2049C9.2907 12.8956 8.20672 11.4419 7.45873 9.99894C7.39004 9.86628 7.36534 9.71521 7.3882 9.56758C7.41106 9.41995 7.4803 9.28342 7.5859 9.17775L9.34654 7.41758C9.45345 7.31058 9.51351 7.16551 9.51351 7.01425C9.51351 6.86299 9.45345 6.71793 9.34654 6.61093L6.99558 4.2595C6.94272 4.20633 6.87982 4.16418 6.81055 4.1355C6.74127 4.10683 6.66699 4.09219 6.59202 4.09244Z" fill="white"/>
<path d="M17.8322 13.0894C17.6455 13.0894 17.4665 13.0153 17.3345 12.8833C17.2025 12.7513 17.1283 12.5722 17.1283 12.3856C17.127 11.1507 16.6358 9.96686 15.7627 9.09366C14.8896 8.22046 13.7058 7.72923 12.471 7.72774C12.2843 7.72774 12.1053 7.65358 11.9733 7.52158C11.8412 7.38957 11.7671 7.21054 11.7671 7.02386C11.7671 6.83718 11.8412 6.65814 11.9733 6.52614C12.1053 6.39414 12.2843 6.31998 12.471 6.31998C15.8153 6.31998 18.5361 9.04165 18.5361 12.3856C18.5361 12.5722 18.4619 12.7513 18.3299 12.8833C18.1979 13.0153 18.0189 13.0894 17.8322 13.0894Z" fill="white"/>
<path d="M20.8073 13.0894C20.6206 13.0894 20.4416 13.0153 20.3095 12.8833C20.1775 12.7513 20.1034 12.5722 20.1034 12.3856C20.1034 8.17682 16.6778 4.75267 12.471 4.75267C12.2843 4.75267 12.1053 4.67851 11.9733 4.54651C11.8412 4.41451 11.7671 4.23547 11.7671 4.04879C11.7671 3.86211 11.8412 3.68308 11.9733 3.55107C12.1053 3.41907 12.2843 3.34491 12.471 3.34491C17.4559 3.34491 21.5111 7.40067 21.5111 12.3856C21.5111 12.5722 21.437 12.7513 21.305 12.8833C21.173 13.0153 20.9939 13.0894 20.8073 13.0894Z" fill="white"/>
</svg>
