<svg width="56" height="58" viewBox="0 0 56 58" fill="none" xmlns="http://www.w3.org/2000/svg">
<g clip-path="url(#clip0_94_99)">
<path d="M29.8231 53.9842C29.8921 54.6436 29.9333 55.4993 30.0821 56.3348C30.2621 57.3456 30.8247 57.435 31.4791 56.7579C32.0976 56.1176 32.6743 55.4272 33.2222 54.7198C38.7015 47.6369 42.3663 39.4825 45.7818 31.2269C47.677 26.6459 48.3971 27.3505 43.3598 25.1945C35.9782 22.0356 28.2418 21.7138 20.417 22.8214C16.2536 23.4101 12.2708 24.6131 8.58856 26.7945C7.6892 27.3269 7.32899 27.8422 7.76359 28.9554C9.15519 32.52 10.328 36.182 11.8305 39.6934C13.1219 42.7117 14.7236 45.5898 16.2556 48.4918C16.4975 48.9512 17.0943 49.208 17.5269 49.5587C17.8422 49.1081 18.2524 48.7003 18.4568 48.2013C19.6868 45.2018 20.81 42.1539 22.0991 39.1822C22.5739 38.0886 23.2632 37.0085 24.0955 36.1845C26.6056 33.7003 29.2555 34.4638 30.0372 37.987C30.4815 39.9885 30.571 42.1215 30.514 44.1857C30.4259 47.3898 30.0768 50.5859 29.8231 53.9842ZM2.35669 29.3434C3.32675 27.9435 4.20769 26.4625 5.30006 25.1747C5.9719 24.383 6.10292 23.6895 5.8764 22.7326C4.82357 18.2824 4.50357 13.7567 4.7599 9.18995C5.05947 3.85416 8.67836 1.26178 13.6172 2.85584C14.9407 3.2828 16.2519 3.80197 17.4944 4.43667C20.2441 5.84177 23.1171 6.44411 26.171 6.2736C26.6405 6.24716 27.1277 6.57042 27.6065 6.73153C27.2848 7.16336 27.0433 7.8346 26.6271 7.98492C24.7928 8.64816 22.9174 9.19725 21.0376 9.71051C20.298 9.91268 19.4905 9.84378 18.7463 10.0338C18.2839 10.1517 17.8814 10.5241 17.4522 10.7823C17.8657 11.0032 18.2875 11.4288 18.6923 11.4117C20.8422 11.3202 23.0001 11.2158 25.1326 10.9319C28.519 10.4806 31.3457 8.79744 33.7952 6.36303C34.9857 5.17993 36.2141 4.03476 37.471 2.92856C40.7264 0.0640661 45.3314 0.523735 48.068 3.91019C50.6425 7.09621 50.8884 10.8313 50.3771 14.6851C50.0477 17.1675 49.5092 19.628 48.9285 22.0631C48.6682 23.1537 48.7429 23.8597 49.5454 24.739C50.8221 26.1372 51.8387 27.79 52.9663 29.3354C41.353 15.2168 13.1825 15.7951 2.35669 29.3434Z" fill="#0F2D4A"/>
</g>
<defs>
<clipPath id="clip0_94_99">
<rect width="55.3289" height="57.4569" fill="white" transform="translate(0 0.0640259)"/>
</clipPath>
</defs>
</svg>
