<svg width="34" height="36" viewBox="0 0 34 36" fill="none" xmlns="http://www.w3.org/2000/svg">
<g clip-path="url(#clip0_119_66)">
<path d="M17.9952 33.1772C18.0369 33.5751 18.0618 34.0914 18.1515 34.5955C18.2601 35.2054 18.5996 35.2594 18.9944 34.8508C19.3677 34.4645 19.7156 34.0479 20.0462 33.621C23.3524 29.3472 25.5637 24.4269 27.6246 19.4455C28.7682 16.6814 29.2027 17.1065 26.1632 15.8056C21.7092 13.8995 17.0411 13.7053 12.3196 14.3736C9.80744 14.7289 7.40424 15.4547 5.1824 16.771C4.63973 17.0923 4.42238 17.4032 4.68462 18.0749C5.5243 20.2258 6.23196 22.4354 7.13857 24.5542C7.9178 26.3754 8.88426 28.112 9.80866 29.8631C9.95464 30.1403 10.3147 30.2952 10.5758 30.5069C10.766 30.235 11.0135 29.9889 11.1368 29.6878C11.8791 27.8779 12.5568 26.0388 13.3346 24.2457C13.6211 23.5858 14.037 22.9341 14.5392 22.4369C16.0538 20.938 17.6527 21.3986 18.1244 23.5245C18.3925 24.7322 18.4465 26.0193 18.4121 27.2648C18.359 29.1982 18.1483 31.1267 17.9952 33.1772ZM1.42212 18.309C2.00745 17.4643 2.539 16.5707 3.19813 15.7936C3.60352 15.316 3.68258 14.8975 3.5459 14.3201C2.91062 11.6349 2.71754 8.90408 2.87221 6.14851C3.05296 2.92892 5.23659 1.36469 8.21663 2.32654C9.01527 2.58416 9.80643 2.89743 10.5561 3.2804C12.2153 4.12824 13.9489 4.49169 15.7916 4.3888C16.0749 4.37285 16.3688 4.5679 16.6578 4.66512C16.4637 4.92568 16.3179 5.3307 16.0668 5.42141C14.96 5.8216 13.8283 6.15292 12.6941 6.46262C12.2478 6.58461 11.7606 6.54304 11.3115 6.65768C11.0325 6.72885 10.7897 6.95352 10.5307 7.10931C10.7802 7.24264 11.0347 7.49942 11.279 7.48913C12.5762 7.43391 13.8783 7.37092 15.165 7.19959C17.2083 6.92727 18.914 5.91167 20.392 4.44276C21.1103 3.72889 21.8516 3.0379 22.61 2.37042C24.5742 0.641996 27.3529 0.919359 29.0041 2.96273C30.5576 4.88516 30.706 7.13891 30.3974 9.46426C30.1987 10.9621 29.8738 12.4468 29.5234 13.9161C29.3663 14.5742 29.4114 15.0002 29.8956 15.5308C30.6659 16.3744 31.2794 17.3717 31.9597 18.3042C24.9523 9.78509 7.9544 10.1341 1.42212 18.309Z" fill="#46B1DE"/>
</g>
<defs>
<clipPath id="clip0_119_66">
<rect width="33.3852" height="34.6693" fill="white" transform="translate(0 0.641846)"/>
</clipPath>
</defs>
</svg>
